<svg xmlns="http://www.w3.org/2000/svg" width="1200" height="760" viewBox="0 0 1200 760" role="img" aria-label="Gigxomi chat system preview">
  <rect width="1200" height="760" fill="#08090c"/><circle cx="950" cy="140" r="170" fill="#d1ff32" opacity=".07"/>
  <rect x="70" y="56" width="1060" height="648" rx="28" fill="#0d1117" stroke="#fff" stroke-opacity=".08"/>
  <rect x="70" y="56" width="318" height="648" rx="28" fill="#0a0e13"/><text x="108" y="112" fill="#f8fafc" font-family="Inter,Arial" font-size="26" font-weight="800">Chat Inbox</text>
  <rect x="104" y="144" width="236" height="42" rx="18" fill="#131922" stroke="#fff" stroke-opacity=".08"/><text x="130" y="171" fill="#94a3b8" font-family="Inter,Arial" font-size="14">Search project chats</text>
  <g font-family="Inter,Arial"><rect x="104" y="218" width="236" height="86" rx="18" fill="#d1ff32" opacity=".12" stroke="#d1ff32" stroke-opacity=".22"/><text x="132" y="252" fill="#f8fafc" font-size="16" font-weight="800">Wedding Highlight</text><text x="132" y="278" fill="#b8c2ce" font-size="13">Customer lane · unread</text><rect x="104" y="324" width="236" height="86" rx="18" fill="#fff" opacity=".035"/><text x="132" y="358" fill="#f8fafc" font-size="16" font-weight="800">Real Estate Reels</text><text x="132" y="384" fill="#94a3b8" font-size="13">Internal lane active</text><rect x="104" y="430" width="236" height="86" rx="18" fill="#fff" opacity=".035"/><text x="132" y="464" fill="#f8fafc" font-size="16" font-weight="800">Podcast Clips</text><text x="132" y="490" fill="#94a3b8" font-size="13">Payment pending</text></g>
  <rect x="388" y="56" width="742" height="86" fill="#111820"/><text x="424" y="104" fill="#f8fafc" font-family="Inter,Arial" font-size="24" font-weight="800">Wedding Highlight</text><text x="424" y="128" fill="#94a3b8" font-family="Inter,Arial" font-size="13">Assigned editor · project-based chat · controlled lanes</text>
  <rect x="420" y="174" width="164" height="34" rx="17" fill="#d1ff32"/><text x="452" y="196" fill="#101603" font-family="Inter,Arial" font-size="13" font-weight="800">Customer lane</text><rect x="598" y="174" width="134" height="34" rx="17" fill="#fff" opacity=".06"/><text x="626" y="196" fill="#cbd5e1" font-family="Inter,Arial" font-size="13">Internal lane</text>
  <g font-family="Inter,Arial"><rect x="424" y="246" width="370" height="72" rx="20" fill="#1b232d"/><text x="452" y="278" fill="#f8fafc" font-size="15" font-weight="700">Client uploaded raw clips and reference.</text><text x="452" y="300" fill="#94a3b8" font-size="12">10:22 · customer</text><rect x="720" y="350" width="340" height="76" rx="20" fill="#18272f" stroke="#d1ff32" stroke-opacity=".18"/><text x="748" y="382" fill="#f8fafc" font-size="15" font-weight="700">We accepted the editor and opened the workflow.</text><text x="748" y="404" fill="#94a3b8" font-size="12">10:28 · agency</text><rect x="424" y="462" width="430" height="76" rx="20" fill="#1b232d"/><text x="452" y="494" fill="#f8fafc" font-size="15" font-weight="700">Editor can now coordinate in the project thread.</text><text x="452" y="516" fill="#94a3b8" font-size="12">10:31 · system update</text></g>
  <rect x="424" y="596" width="636" height="54" rx="27" fill="#111820" stroke="#fff" stroke-opacity=".08"/><text x="462" y="630" fill="#94a3b8" font-family="Inter,Arial" font-size="14">Reply to the customer in the routed shared thread</text><circle cx="1028" cy="623" r="20" fill="#d1ff32"/><path d="M1020 623h16m0 0-7-7m7 7-7 7" stroke="#101603" stroke-width="3" stroke-linecap="round" stroke-linejoin="round"/>
</svg>
