<svg xmlns="http://www.w3.org/2000/svg" width="1200" height="760" viewBox="0 0 1200 760" role="img" aria-label="Gigxomi freelancer dashboard preview">
  <defs><linearGradient id="bg" x1="0" x2="1" y1="0" y2="1"><stop stop-color="#08090c"/><stop offset="1" stop-color="#11140f"/></linearGradient><filter id="shadow"><feDropShadow dx="0" dy="22" stdDeviation="26" flood-color="#000" flood-opacity=".44"/></filter></defs>
  <rect width="1200" height="760" fill="url(#bg)"/><circle cx="210" cy="150" r="180" fill="#d1ff32" opacity=".06"/><circle cx="980" cy="600" r="210" fill="#d1ff32" opacity=".05"/>
  <rect x="70" y="58" width="1060" height="644" rx="30" fill="#0d1117" stroke="#fff" stroke-opacity=".08" filter="url(#shadow)"/>
  <rect x="104" y="92" width="992" height="72" rx="22" fill="#121821" stroke="#fff" stroke-opacity=".08"/>
  <text x="136" y="137" fill="#f8fafc" font-family="Inter,Arial" font-size="28" font-weight="800">Freelancer Dashboard</text><text x="922" y="136" fill="#d1ff32" font-family="Inter,Arial" font-size="14" font-weight="700">Profile 86%</text>
  <rect x="104" y="194" width="288" height="438" rx="24" fill="#111820" stroke="#fff" stroke-opacity=".08"/>
  <circle cx="160" cy="254" r="34" fill="#d1ff32"/><text x="210" y="250" fill="#f8fafc" font-family="Inter,Arial" font-size="20" font-weight="800">Editor Workspace</text><text x="210" y="276" fill="#94a3b8" font-family="Inter,Arial" font-size="13">Short-form and wedding edits</text>
  <g font-family="Inter,Arial" font-size="15" fill="#cbd5e1"><text x="136" y="344">Available Work</text><text x="136" y="392">Applications</text><text x="136" y="440">Chats</text><text x="136" y="488">Portfolio</text><text x="136" y="536">Wallet</text></g>
  <rect x="126" y="320" width="230" height="40" rx="14" fill="#d1ff32" opacity=".12" stroke="#d1ff32" stroke-opacity=".28"/>
  <rect x="424" y="194" width="324" height="210" rx="24" fill="#111820" stroke="#fff" stroke-opacity=".08"/><text x="454" y="236" fill="#f8fafc" font-family="Inter,Arial" font-size="22" font-weight="800">Matched work</text><text x="454" y="286" fill="#f8fafc" font-family="Inter,Arial" font-size="56" font-weight="900">6</text><text x="454" y="322" fill="#94a3b8" font-family="Inter,Arial" font-size="15">2 urgent · 3 high match</text><rect x="454" y="346" width="180" height="34" rx="17" fill="#d1ff32"/><text x="486" y="368" fill="#101603" font-family="Inter,Arial" font-size="14" font-weight="800">Apply Now</text>
  <rect x="772" y="194" width="324" height="210" rx="24" fill="#111820" stroke="#fff" stroke-opacity=".08"/><text x="802" y="236" fill="#f8fafc" font-family="Inter,Arial" font-size="22" font-weight="800">Wallet</text><text x="802" y="286" fill="#f8fafc" font-family="Inter,Arial" font-size="42" font-weight="900">INR 24,800</text><text x="802" y="322" fill="#94a3b8" font-family="Inter,Arial" font-size="15">Ready after payment review</text><rect x="802" y="346" width="200" height="34" rx="17" fill="#fff" opacity=".05"/><text x="828" y="368" fill="#cbd5e1" font-family="Inter,Arial" font-size="14">Request payout</text>
  <rect x="424" y="430" width="672" height="202" rx="24" fill="#111820" stroke="#fff" stroke-opacity=".08"/><text x="454" y="472" fill="#f8fafc" font-family="Inter,Arial" font-size="22" font-weight="800">Available work</text>
  <g font-family="Inter,Arial"><rect x="454" y="500" width="596" height="44" rx="14" fill="#fff" opacity=".04"/><text x="478" y="528" fill="#f8fafc" font-size="15" font-weight="700">Wedding highlight editor needed</text><text x="915" y="528" fill="#d1ff32" font-size="14" font-weight="800">92%</text><rect x="454" y="556" width="596" height="44" rx="14" fill="#fff" opacity=".04"/><text x="478" y="584" fill="#f8fafc" font-size="15" font-weight="700">Real estate reels batch</text><text x="915" y="584" fill="#d1ff32" font-size="14" font-weight="800">78%</text></g>
</svg>
