<svg xmlns="http://www.w3.org/2000/svg" width="1200" height="760" viewBox="0 0 1200 760" role="img" aria-label="Gigxomi wallet and payments preview">
  <rect width="1200" height="760" fill="#08090c"/><rect x="86" y="58" width="1028" height="644" rx="30" fill="#0d1117" stroke="#fff" stroke-opacity=".08"/>
  <text x="132" y="122" fill="#f8fafc" font-family="Inter,Arial" font-size="32" font-weight="800">Wallet &amp; Payments</text><text x="132" y="152" fill="#94a3b8" font-family="Inter,Arial" font-size="15">Transparent payment requests, payouts, and ledger entries.</text>
  <rect x="132" y="204" width="302" height="166" rx="24" fill="#121922" stroke="#fff" stroke-opacity=".08"/><text x="166" y="248" fill="#94a3b8" font-family="Inter,Arial" font-size="14">Available balance</text><text x="166" y="300" fill="#f8fafc" font-family="Inter,Arial" font-size="42" font-weight="900">INR 24,800</text><rect x="166" y="322" width="150" height="34" rx="17" fill="#d1ff32"/><text x="196" y="344" fill="#101603" font-family="Inter,Arial" font-size="14" font-weight="800">Request payout</text>
  <rect x="466" y="204" width="302" height="166" rx="24" fill="#121922" stroke="#fff" stroke-opacity=".08"/><text x="500" y="248" fill="#94a3b8" font-family="Inter,Arial" font-size="14">Payment pending</text><text x="500" y="300" fill="#f8fafc" font-family="Inter,Arial" font-size="42" font-weight="900">INR 8,500</text><text x="500" y="336" fill="#94a3b8" font-family="Inter,Arial" font-size="14">Waiting for agency confirmation</text>
  <rect x="800" y="204" width="270" height="166" rx="24" fill="#121922" stroke="#fff" stroke-opacity=".08"/><text x="834" y="248" fill="#94a3b8" font-family="Inter,Arial" font-size="14">Payout status</text><text x="834" y="300" fill="#f8fafc" font-family="Inter,Arial" font-size="34" font-weight="900">Review</text><text x="834" y="336" fill="#94a3b8" font-family="Inter,Arial" font-size="14">UPI details verified</text>
  <rect x="132" y="414" width="938" height="220" rx="24" fill="#121922" stroke="#fff" stroke-opacity=".08"/>
  <text x="166" y="458" fill="#f8fafc" font-family="Inter,Arial" font-size="22" font-weight="800">Ledger</text>
  <g font-family="Inter,Arial"><text x="166" y="504" fill="#94a3b8" font-size="13">PROJECT</text><text x="518" y="504" fill="#94a3b8" font-size="13">STATUS</text><text x="760" y="504" fill="#94a3b8" font-size="13">NET</text><path d="M166 520H1036" stroke="#fff" stroke-opacity=".08"/><text x="166" y="554" fill="#f8fafc" font-size="15" font-weight="700">Wedding highlight delivery</text><text x="518" y="554" fill="#d1ff32" font-size="15">Paid</text><text x="760" y="554" fill="#f8fafc" font-size="15" font-weight="700">INR 12,400</text><text x="166" y="604" fill="#f8fafc" font-size="15" font-weight="700">Podcast clips batch</text><text x="518" y="604" fill="#cbd5e1" font-size="15">Pending proof</text><text x="760" y="604" fill="#f8fafc" font-size="15" font-weight="700">INR 8,500</text></g>
</svg>
